<?xml version="1.0" encoding="UTF-8" standalone="no"?>
<!-- Created with Inkscape (http://www.inkscape.org/) -->

<svg
   xmlns:dc="http://purl.org/dc/elements/1.1/"
   xmlns:cc="http://creativecommons.org/ns#"
   xmlns:rdf="http://www.w3.org/1999/02/22-rdf-syntax-ns#"
   xmlns:svg="http://www.w3.org/2000/svg"
   xmlns="http://www.w3.org/2000/svg"
   xmlns:sodipodi="http://sodipodi.sourceforge.net/DTD/sodipodi-0.dtd"
   xmlns:inkscape="http://www.inkscape.org/namespaces/inkscape"
   width="2800"
   height="2800"
   id="svg2"
   version="1.1"
   inkscape:version="0.48.4 r9939"
   sodipodi:docname="template istockphoto.svg">
  <defs
     id="defs4" />
  <sodipodi:namedview
     id="base"
     pagecolor="#ffffff"
     bordercolor="#666666"
     borderopacity="1.0"
     inkscape:pageopacity="0.0"
     inkscape:pageshadow="2"
     inkscape:zoom="0.13797904"
     inkscape:cx="952.70289"
     inkscape:cy="1023.4745"
     inkscape:document-units="px"
     inkscape:current-layer="layer2"
     showgrid="false"
     inkscape:window-width="1366"
     inkscape:window-height="706"
     inkscape:window-x="-8"
     inkscape:window-y="-8"
     inkscape:window-maximized="1" />
  <metadata
     id="metadata7">
    <rdf:RDF>
      <cc:Work
         rdf:about="">
        <dc:format>image/svg+xml</dc:format>
        <dc:type
           rdf:resource="http://purl.org/dc/dcmitype/StillImage" />
        <dc:title></dc:title>
      </cc:Work>
    </rdf:RDF>
  </metadata>
  <g
     inkscape:label="BG"
     inkscape:groupmode="layer"
     id="layer1"
     transform="translate(0,1747.6378)">
    <rect
       style="fill:#008080;fill-opacity:1;stroke:none"
       id="rect2985"
       width="2800"
       height="2800"
       x="0"
       y="-1747.6378" />
  </g>
  <g
     inkscape:groupmode="layer"
     id="layer2"
     inkscape:label="Halaman"
     style="display:inline">
    <g
       transform="matrix(0.80086088,0,0,0.80086088,-1954.0007,1272.3658)"
       id="g4275"
       style="font-size:360.09094238px;font-style:normal;font-variant:normal;font-weight:bold;font-stretch:normal;line-height:1000%;letter-spacing:0px;word-spacing:0px;fill:#0b2228;fill-opacity:1;stroke:none;font-family:Arial;-inkscape-font-specification:Arial Bold" />
    <g
       id="g3217"
       transform="translate(-13.103694,-88.955991)">
      <path
         style="fill:#00222b;stroke:none"
         d="m 1805.0312,521 c -84.7114,2.37393 -164.7492,40.60934 -229.5871,93.44184 -106.5799,85.28756 -198.4177,188.535 -312.1316,264.58941 -56.9257,-26.12751 -118.7665,-43.24808 -181.6246,-45.10171 -53.3019,-1.66882 -107.40204,9.85104 -153.58739,36.7541 -63.65912,36.03789 -111.84033,95.33043 -141.3285,161.75716 -1.76628,3.4927 -4.15302,12.1299 -4.42123,3.6069 -5.78947,-32.5052 -14.38675,-64.52323 -22.88203,-96.32895 4.86154,-18.75587 -3.5304,-37.46042 -2.12782,-56.40203 -2.12322,-37.46256 -8.33737,-77.83553 -34.21593,-106.69172 -21.47691,-22.59048 -56.12326,-29.20427 -85.64878,-20.69047 -20.26509,2.52623 -40.95168,2.98945 -61.16372,0.25297 -29.05529,-22.6099 -72.723,-28.49348 -104.48092,-7.85788 -33.15867,20.1949 -51.19421,58.24883 -56.21672,95.86293 -11.56085,69.55618 1.72963,139.90448 12.79048,208.62455 12.51395,72.236 31.13357,145.1354 69.62591,208.1204 24.55772,37.0505 63.3139,60.9368 100.09375,84.4687 25.60396,20.1094 37.61022,51.7073 46.57279,81.9876 26.17436,77.5906 45.19528,157.4088 65.42721,236.6687 -38.9266,4.0148 -79.1491,24.232 -96.375,60.9063 -18.00164,38.5244 -7.31548,87.4383 22.90625,116.6562 -0.32257,19.9605 12.4467,36.7261 18.6875,54.875 0.71678,24.2076 11.70746,47.5 28.375,64.625 -9.52867,27.944 -8.26654,62.6552 12.53125,85.25 11.73518,11.7095 28.53833,17.4591 45.03125,17.5625 -2.0409,82.7518 -9.10145,165.3652 -9.38345,248.1482 5.24688,59.8904 37.50476,119.1837 90.75845,148.8831 28.99305,15.4757 67.83106,17.4634 94.90871,-3.1108 31.35375,-22.6695 45.43748,-62.2514 48.30135,-99.7606 4.49938,-56.0411 -10.61263,-111.015 -16.23033,-166.3092 -8.4204,-63.9706 -17.42584,-127.9576 -25.51098,-191.9132 51.97414,-10.3536 90.9113,-58.1154 97.9355,-109.6992 3.592,-27.1497 1.1833,-54.8645 -2.9868,-81.7851 -6.2826,-35.4462 -20.393,-71.2654 -47.66745,-95.7345 -10.40973,-8.8246 -23.58099,-14.2516 -36.53125,-17.5312 -10.88844,-27.6632 -35.8986,-47.8229 -63.6875,-56.9375 -4.65647,-2.0904 -12.85646,-3.2112 -12.46875,-9.9687 -25.71324,-105.3807 -51.10218,-212.7177 -103.80925,-308.3763 -2.75245,-5.1258 -5.78687,-10.0493 -8.56575,-15.155 8.26219,-2.3854 16.51392,-4.7332 24.78125,-7.2813 33.29201,112.02 102.18974,210.595 185.07372,291.7855 68.43968,71.1053 129.85518,152.513 163.15708,246.5467 39.3931,105.0487 55.4091,218.5865 48.359,330.5693 -6.9034,74.4296 -33.1522,145.2046 -60.8146,214.0251 -4.8428,14.3123 -2.1849,32.6807 11.2248,41.3547 13.5564,10.2837 32.348,8.8304 47.5938,3.5 48.3595,-11.271 88.1388,-45.0049 117.7911,-83.3976 63.2186,-76.5942 122.094,-158.0191 198.5839,-222.0711 102.39,-17.9106 213.6438,10.835 290.2361,82.0296 51.9928,50.6424 95.5108,111.7223 158.7013,149.5016 41.1448,25.5198 90.1182,39.3016 138.7813,33.75 23.0546,-1.613 46.0253,-4.3674 69.125,-5.3438 -51.7941,-38.1536 -84.2887,-96.4081 -104.25,-156.3437 -49.9276,-153.2061 -76.5361,-315.9293 -61.9359,-477.2142 12.1511,-128.3092 54.8047,-251.0207 101.1428,-370.5059 36.0849,-93.3639 81.1345,-184.9677 94.5744,-285.1862 16.0644,-117.17528 12.1303,-239.76335 -29.952,-351.36249 -28.3103,-74.24656 -80.9976,-140.9489 -152.5304,-177.2211 C 1930.4589,533.159 1867.4312,520.35089 1805.0312,521 z m 414.9376,645.6875 c -38.0126,-0.6532 -70.727,31.3424 -77.1676,67.7544 -8.2067,35.9758 3.087,75.0748 -13.3845,109.3226 -14.4114,35.5441 -29.4333,71.032 -36.9622,108.7776 -4.4731,19.1657 -7.677,38.7777 -10.0795,58.3017 -31.7947,23.5596 -45.0206,64.718 -45.0625,103.1562 -0.787,44.5691 18.5538,91.1436 56.4375,116.2188 9.5503,5.671 20.7342,8.5913 31.9062,8.2187 36.1729,36.2412 93.9162,51.2339 142.766,33.9258 21.0677,-8.5814 36.0935,-26.4323 51.9216,-41.9883 13.8983,-10.3829 32.3665,-15.8692 41.4062,-31.7188 5.761,-7.898 7.329,-17.955 11.4375,-26.5312 7.935,-8.7556 19.9416,-13.3228 27.3437,-22.8438 20.9155,-20.711 34.6967,-52.3285 25.75,-81.75 -5.6653,-18.5813 -16.2427,-37.36 -12.2187,-57.3124 1.3255,-33.6435 -14.0149,-65.9111 -37.7813,-88.8438 -18.4156,-19.0611 -38.4795,-36.8568 -60.6089,-51.6058 -6.0449,-3.7836 -13.2634,-6.4914 -19.3598,-9.2067 22.9524,-48.9408 23.0736,-110.1154 -5.6704,-156.6607 -16.0752,-22.3885 -42.6547,-38.0787 -70.6733,-37.2143 z"
         id="path3215"
         inkscape:connector-curvature="0" />
      <path
         inkscape:connector-curvature="0"
         id="path3184"
         d="m 1791.0312,505 c -84.7114,2.37393 -164.7492,40.60934 -229.5871,93.44184 -106.5799,85.28756 -198.4177,188.535 -312.1316,264.58941 -56.9257,-26.12751 -118.7665,-43.24808 -181.6246,-45.10171 -53.3019,-1.66882 -107.40204,9.85104 -153.58739,36.7541 -63.65912,36.03789 -111.84033,95.33043 -141.3285,161.75716 -1.76628,3.4927 -4.15302,12.1299 -4.42123,3.6069 -5.78947,-32.5052 -14.38675,-64.52323 -22.88203,-96.32895 4.86154,-18.75587 -3.5304,-37.46042 -2.12782,-56.40203 -2.12322,-37.46256 -8.33737,-77.83553 -34.21593,-106.69172 -21.47691,-22.59048 -56.12326,-29.20427 -85.64878,-20.69047 -20.26509,2.52623 -40.95168,2.98945 -61.16372,0.25297 -29.05529,-22.6099 -72.723,-28.49348 -104.48092,-7.85788 -33.15867,20.1949 -51.19421,58.24883 -56.21672,95.86293 -11.56085,69.55618 1.72963,139.90448 12.79048,208.62455 12.51395,72.236 31.13357,145.1354 69.62591,208.1204 24.55772,37.0505 63.3139,60.9368 100.09375,84.4687 25.60396,20.1094 37.61022,51.7073 46.57279,81.9876 26.17436,77.5906 45.19528,157.4088 65.42721,236.6687 -38.9266,4.0148 -79.1491,24.232 -96.375,60.9063 -18.00164,38.5244 -7.31548,87.4383 22.90625,116.6562 -0.32257,19.9605 12.4467,36.7261 18.6875,54.875 0.71678,24.2076 11.70746,47.5 28.375,64.625 -9.52867,27.944 -8.26654,62.6552 12.53125,85.25 11.73518,11.7095 28.53833,17.4591 45.03125,17.5625 -2.0409,82.7518 -9.10145,165.3652 -9.38345,248.1482 5.24688,59.8904 37.50476,119.1837 90.75845,148.8831 28.99305,15.4757 67.83106,17.4634 94.90871,-3.1108 31.35375,-22.6695 45.43748,-62.2514 48.30135,-99.7606 4.49938,-56.0411 -10.61263,-111.015 -16.23033,-166.3092 -8.4204,-63.9706 -17.42584,-127.9576 -25.51098,-191.9132 51.97414,-10.3536 90.9113,-58.1154 97.9355,-109.6992 3.592,-27.1497 1.1833,-54.8645 -2.9868,-81.7851 -6.28256,-35.4462 -20.39295,-71.2654 -47.66745,-95.7345 -10.40973,-8.8246 -23.58099,-14.2516 -36.53125,-17.5312 -10.88844,-27.6632 -35.8986,-47.8229 -63.6875,-56.9375 -4.65647,-2.0904 -12.85646,-3.2112 -12.46875,-9.9687 -25.71324,-105.3807 -51.10218,-212.7177 -103.80925,-308.3763 -2.75245,-5.1258 -5.78687,-10.0493 -8.56575,-15.155 8.26219,-2.3854 16.51392,-4.7332 24.78125,-7.2813 33.29201,112.02 102.18974,210.595 185.07372,291.7855 68.43968,71.1053 129.85518,152.513 163.15708,246.5467 39.3931,105.0487 55.4091,218.5865 48.359,330.5693 -6.9034,74.4296 -33.1522,145.2046 -60.8146,214.0251 -4.8428,14.3123 -2.1849,32.6807 11.2248,41.3547 13.5564,10.2837 32.348,8.8304 47.5938,3.5 48.3595,-11.271 88.1388,-45.0049 117.7911,-83.3976 63.2186,-76.5942 122.094,-158.0191 198.5839,-222.0711 102.39,-17.9106 213.6438,10.835 290.2361,82.0296 51.9928,50.6424 95.5108,111.7223 158.7013,149.5016 41.1448,25.5198 90.1182,39.3016 138.7813,33.75 23.0546,-1.613 46.0253,-4.3674 69.125,-5.3438 -51.7941,-38.1536 -84.2887,-96.4081 -104.25,-156.3437 -49.9276,-153.2061 -76.5361,-315.9293 -61.9359,-477.2142 12.1511,-128.3092 54.8047,-251.0207 101.1428,-370.5059 36.0849,-93.3639 81.1345,-184.9677 94.5744,-285.1862 16.0644,-117.17528 12.1303,-239.76335 -29.952,-351.36249 -28.3103,-74.24656 -80.9976,-140.9489 -152.5304,-177.2211 C 1916.4589,517.159 1853.4312,504.35089 1791.0312,505 z m 414.9376,645.6875 c -38.0126,-0.6532 -70.727,31.3424 -77.1676,67.7544 -8.2067,35.9758 3.087,75.0748 -13.3845,109.3226 -14.4114,35.5441 -29.4333,71.032 -36.9622,108.7776 -4.4731,19.1657 -7.677,38.7777 -10.0795,58.3017 -31.7947,23.5596 -45.0206,64.718 -45.0625,103.1562 -0.787,44.5691 18.5538,91.1436 56.4375,116.2188 9.5503,5.671 20.7342,8.5913 31.9062,8.2187 36.1729,36.2412 93.9162,51.2339 142.766,33.9258 21.0677,-8.5814 36.0935,-26.4323 51.9216,-41.9883 13.8983,-10.3829 32.3665,-15.8692 41.4062,-31.7188 5.761,-7.898 7.329,-17.955 11.4375,-26.5312 7.935,-8.7556 19.9416,-13.3228 27.3437,-22.8438 20.9155,-20.711 34.6967,-52.3285 25.75,-81.75 -5.6653,-18.5813 -16.2427,-37.36 -12.2187,-57.3124 1.3255,-33.6435 -14.0149,-65.9111 -37.7813,-88.8438 -18.4156,-19.0611 -38.4795,-36.8568 -60.6089,-51.6058 -6.0449,-3.7836 -13.2634,-6.4914 -19.3598,-9.2067 22.9524,-48.9408 23.0736,-110.1154 -5.6704,-156.6607 -16.0752,-22.3885 -42.6547,-38.0787 -70.6733,-37.2143 z"
         style="fill:#ffffff;stroke:none" />
      <path
         inkscape:connector-curvature="0"
         id="path4177"
         d="m 502.20337,743.53035 c -36.27751,0.5345 -63.71533,32.9124 -71.56887,66.21318 -17.80183,60.799 -6.86549,125.19326 1.07753,186.69231 11.45884,73.61866 27.2636,147.84276 60.01202,215.00326 18.59877,35.0616 47.84603,63.2118 82.62057,82.0328 27.38196,17.042 53.40928,39.2272 64.31454,70.6989 24.54881,57.6043 38.31356,119.2191 55.76711,179.2202 9.69265,36.2905 19.31775,72.777 27.77301,109.2778 -4.44201,5.0138 -4.849,14.0072 -9.41916,17.7045 -34.40605,2.0746 -72.98505,14.0065 -90.24718,46.1597 -16.67223,33.1635 -4.80971,77.0714 25.00299,98.3359 -3.06797,19.2376 5.28629,39.0937 18.64106,52.5708 -4.5225,27.1046 9.53073,55.4496 32.4003,69.9299 -10.41999,23.0315 -16.94414,52.9306 -0.78905,74.7629 13.67228,14.8885 37.06498,13.6435 54.3948,6.3617 -3.08785,84.5239 -5.57934,169.1147 -11.53964,253.4837 -0.26765,57.7543 24.42887,119.2359 75.50171,149.3778 23.76655,14.8157 58.44956,17.5627 79.37554,-3.7809 28.80256,-26.9766 34.59605,-69.7213 33.06357,-107.525 -2.60638,-46.9723 -12.93058,-93.0168 -17.57364,-139.6281 -9.1471,-67.2999 -18.1285,-134.7721 -27.59927,-201.9339 8.15464,-10.1011 21.77579,-5.4451 32.20304,-10.8001 43.64673,-15.3763 72.32083,-61.4168 69.38668,-107.2621 1.24433,-45.5898 -6.80505,-94.4359 -36.83852,-130.046 -11.86489,-11.7292 -28.27611,-19.1763 -45.1729,-18.3455 -5.64232,-22.4951 -20.20496,-45.4141 -43.84273,-52.0024 -11.10662,-5.2782 -22.08967,-10.8737 -33.48382,-15.5111 -29.34905,-117.0468 -55.08601,-238.2996 -119.14134,-342.0634 -2.45267,-6.2637 -8.26258,-11.6506 -10.7061,-17.1536 19.14479,-7.3259 39.09125,-11.8775 58.63609,-18.0989 11.16319,-110.2853 -0.91135,-222.8778 -32.89345,-328.49324 -1.34296,-2.52245 -7.7953,-4.00082 -2.71243,-6.06577 8.95805,-7.64578 1.47457,-19.67113 2.16988,-29.24441 -3.27296,-37.59418 -1.93143,-79.3896 -25.00283,-111.1088 -13.48243,-17.46145 -37.84534,-26.80133 -59.07984,-19.28243 -27.41289,3.61876 -55.41772,3.43096 -83.04713,1.47947 -14.54086,-11.88363 -32.33638,-21.71888 -51.68254,-20.95917 z"
         style="fill:#000000;stroke:none" />
      <path
         sodipodi:nodetypes="ccsssscccssccsccccccccccssccccc"
         inkscape:connector-curvature="0"
         id="path4172"
         d="m 524.72907,771.15135 c 18.42928,22.30941 27.54734,37.41175 33.2007,153.34814 -12.60959,-98.93748 -18.43891,-159.06073 -67.90738,-154.21089 -49.46815,4.84984 -56.23691,96.02618 -45.56742,181.38387 10.66964,85.35773 37.80289,241.47843 95.03084,292.88723 57.2278,51.4086 89.22489,40.7759 122.20356,125.1636 25.17231,64.4124 62.61083,211.1888 79.00326,277.402 7.57011,-6.9971 14.6406,-15.1884 25.20017,-16.8661 14.27669,-0.3748 27.8486,2.5846 41.03041,7.1015 -17.89383,-71.9507 -38.71756,-153.3335 -49.16745,-185.1813 -20.36939,-62.078 -59.20657,-150.3914 -107.70483,-207.6197 -48.49826,-57.2286 -72.75559,-157.1129 -82.45534,-235.6808 9.69975,47.5287 29.10666,158.1162 88.27456,228.9244 -41.70852,-143.5561 -44.5808,-239.58956 -47.4908,-275.4786 -2.91001,-35.88903 -15.75268,-162.07413 -83.65028,-191.17335 z M 817.7232,1733.3788 c -1.69392,17.3755 -7.99114,35.1672 -20.76186,47.5898 11.13518,7.2912 18.44933,19.9129 19.43043,33.1895 -0.21131,16.8885 -6.39901,33.9204 -16.12622,47.5899 8.98929,8.3798 12.71501,21.2357 11.78646,33.3376 -0.13098,20.2725 -18.15848,35.5575 -36.54278,41.2775 l -3.69858,60.905 -0.0489,1.3315 -8.18628,226.6066 c 0,0 -24.25402,113.5031 49.46334,170.7316 73.71729,57.2286 100.83397,-31.0473 96.95392,-85.3657 -2.1814,-30.54 -26.16052,-199.5271 -45.37017,-341.2168 0,-0.033 0,-0.066 0,-0.098 -0.0489,0.016 -0.0978,-0.016 -0.14834,0 -10.44808,-65.8835 -19.19813,-132.0573 -32.40029,-197.4609 -4.36753,-12.7129 -2.72395,-29.3918 -14.35071,-38.417 z"
         style="fill:#ff0000;stroke:none" />
      <path
         sodipodi:nodetypes="ccccccccccccccccccccccccccc"
         inkscape:connector-curvature="0"
         id="path4126"
         d="m 1787.3625,529.00597 c -86.0756,3.60566 -164.697,47.54636 -228.8029,102.50242 -101.1237,84.26848 -190.8242,183.25605 -301.8307,254.7914 -2.9817,3.2124 -7.582,4.91612 -10.8532,1.06712 -79.6481,-36.19361 -171.1603,-58.77761 -258.16335,-37.02559 -83.71703,21.45691 -150.38876,86.79472 -186.879,163.56498 -36.75638,70.5298 -48.94352,154.8492 -28.13518,232.1036 26.24289,113.9438 92.46297,214.7636 173.8509,297.1568 51.58611,53.7124 101.38933,109.8659 137.72393,175.0923 62.1223,108.3679 89.4943,232.8449 95.2333,356.8481 2.9777,68.9024 -6.7826,137.9054 -29.2506,203.074 -10.5424,33.2599 -24.6755,65.5606 -36.295,98.4451 -0.81,9.3917 10.1055,15.3738 18.1481,11.5892 50.1308,-5.1988 90.5544,-41.1554 120.3295,-79.5465 65.147,-78.8813 125.638,-162.4816 205.2015,-227.4449 130.917,-23.8615 239.7601,19.9276 312.6102,81.963 43.0169,41.3848 78.3758,90.2803 125.7377,127.0569 38.7375,32.477 86.9412,57.2836 138.7901,55.4119 11.2842,-0.027 22.5412,-0.9505 33.7811,-1.874 -53.1244,-58.8746 -74.8439,-137.4031 -95.2099,-212.2509 -29.5269,-111.653 -45.4161,-227.4002 -42.38,-343.0953 3.0462,-150.4454 51.1886,-294.9586 105.2023,-433.8687 24.2231,-64.9552 54.3419,-127.8102 74.503,-194.1694 24.6204,-80.5398 30.9159,-165.73388 27.5083,-249.63308 -4.2791,-75.2832 -19.3407,-151.71953 -54.0894,-218.81872 -31.7549,-59.95046 -82.7889,-110.84321 -146.7397,-135.43661 -47.2342,-19.73551 -98.7819,-28.76229 -149.991,-27.50312 z"
         style="fill:#000000;stroke:none" />
      <path
         sodipodi:nodetypes="cssssccccscssscc"
         inkscape:connector-curvature="0"
         id="path4124"
         d="m 1132.1383,961.35054 c 0,0 60.1378,15.51959 244.4309,-137.73638 184.2933,-153.25605 300.689,-337.55105 543.1802,-250.25339 242.4911,87.29766 209.5123,461.70783 168.7738,585.86453 -40.7384,124.1568 -178.4734,389.9297 -180.4134,636.3033 -1.9399,246.3733 73.7173,469.4674 116.3957,527.6659 -65.9575,-1.9399 -120.2756,-42.6789 -228.9116,-166.8355 -67.8975,-69.8382 -207.5724,-124.1567 -323.9681,-95.0575 87.7819,-70.8082 190.113,-89.2377 190.113,-89.2377 0,0 -106.6961,-15.5196 -250.2508,120.2769 -143.5547,135.7964 -188.173,256.0732 -269.6501,271.5928 42.6784,-110.5771 85.3568,-209.5145 42.6784,-432.6085 -42.6784,-223.0943 -155.1944,-333.6712 -242.49115,-424.8488 -87.29678,-91.1776 -195.93276,-275.4728 -143.55468,-428.7288 52.37801,-153.2558 182.35335,-283.23247 432.60413,-172.65533 -29.0989,25.21928 -98.9363,56.25847 -98.9363,56.25847 z"
         style="fill:#aaffee;stroke:none" />
      <path
         id="path4144"
         d="m 1666.0959,667.71147 c -35.7815,-0.11363 -71.0317,12.11688 -101.3431,37.57871 -52.1741,43.82667 -135.6212,93.12063 -201.7492,129.45438 -173.6512,141.28555 -230.8454,126.59383 -230.8454,126.59383 0,0 33.2745,-14.78625 63.4688,-32.2526 -18.9789,-7.43999 -171.5276,-60.4998 -281.98527,106.47311 -117.96953,178.3275 87.80827,452.6511 233.21247,628.2351 145.404,175.5842 145.4177,414.2515 98.7788,488.3261 -46.6393,74.0745 115.1861,-93.283 246.8727,-186.562 131.6868,-93.279 233.2034,-20.5763 231.8318,0 -1.3719,20.5762 -87.7892,27.478 -74.0718,28.8497 13.7173,1.3717 162.7752,84.3359 147.2558,26.1374 -15.5194,-58.1986 -31.0253,-135.7667 27.1727,-469.4379 58.198,-333.6712 93.1293,-554.82122 38.8113,-713.89695 C 1826.162,727.84568 1744.8156,667.9616 1666.0959,667.71147 z"
         style="fill:#ffffff;stroke:none"
         inkscape:connector-curvature="0" />
      <path
         sodipodi:type="arc"
         style="fill:#000000;fill-opacity:1;stroke:none"
         id="path3935"
         sodipodi:cx="4787.6382"
         sodipodi:cy="940.34259"
         sodipodi:rx="18.798145"
         sodipodi:ry="29.216394"
         d="m 4806.4363,940.34259 c 0,16.13577 -8.4162,29.21639 -18.7981,29.21639 -10.3819,0 -18.7982,-13.08062 -18.7982,-29.21639 0,-16.13577 8.4163,-29.21639 18.7982,-29.21639 10.3819,0 18.7981,13.08062 18.7981,29.21639 z"
         transform="matrix(1.5832684,-0.20978424,0.20407099,1.540181,-6418.0805,940.06737)" />
      <path
         style="fill:#000000;stroke:none"
         d="m 1319.7674,1446.58 c 0,0 -22.1596,-34.3119 -35.7412,-27.1637 -5.258,2.7676 -1.3847,8.0018 3.5454,10.2027 7.8043,3.4838 21.6817,4.6945 32.1958,16.961 z"
         id="path3937"
         inkscape:connector-curvature="0"
         sodipodi:nodetypes="cssc" />
      <path
         sodipodi:nodetypes="cssc"
         inkscape:connector-curvature="0"
         id="path3939"
         d="m 1292.2711,1445.2255 c 0,0 -33.7151,-23.0568 -43.4701,-11.2077 -3.7765,4.5872 1.8211,7.9137 7.2188,8.0343 8.5445,0.1906 21.8083,-4.0659 36.2513,3.1734 z"
         style="fill:#000000;stroke:none" />
      <path
         sodipodi:nodetypes="cssc"
         inkscape:connector-curvature="0"
         id="path3941"
         d="m 1610.4599,1398.5452 c 0,0 4.3052,-40.6181 19.6508,-40.3628 5.941,0.099 4.8444,6.5173 1.4366,10.7051 -5.3945,6.629 -17.2348,13.9678 -21.0874,29.6577 z"
         style="fill:#000000;stroke:none" />
      <path
         style="fill:#000000;stroke:none"
         d="m 1634.3906,1384.9362 c 0,0 19.6946,-35.7834 33.7447,-29.607 5.4393,2.3913 1.9398,7.8855 -2.8199,10.4264 -7.5402,4.0235 -21.2983,6.206 -30.9248,19.1806 z"
         id="path3943"
         inkscape:connector-curvature="0"
         sodipodi:nodetypes="cssc" />
      <path
         transform="matrix(0.51556222,0.0984425,-0.09576151,0.5015316,-1035.7815,418.91568)"
         d="m 4806.4363,940.34259 c 0,16.13577 -8.4162,29.21639 -18.7981,29.21639 -10.3819,0 -18.7982,-13.08062 -18.7982,-29.21639 0,-16.13577 8.4163,-29.21639 18.7982,-29.21639 10.3819,0 18.7981,13.08062 18.7981,29.21639 z"
         sodipodi:ry="29.216394"
         sodipodi:rx="18.798145"
         sodipodi:cy="940.34259"
         sodipodi:cx="4787.6382"
         id="path3945"
         style="fill:#ffffff;fill-opacity:1;stroke:none"
         sodipodi:type="arc" />
      <path
         transform="matrix(1.9500078,-0.00145301,-0.0565664,2.1006731,-7724.9483,-633.82676)"
         d="m 4806.4363,940.34259 c 0,16.13577 -8.4162,29.21639 -18.7981,29.21639 -10.3819,0 -18.7982,-13.08062 -18.7982,-29.21639 0,-16.13577 8.4163,-29.21639 18.7982,-29.21639 10.3819,0 18.7981,13.08062 18.7981,29.21639 z"
         sodipodi:ry="29.216394"
         sodipodi:rx="18.798145"
         sodipodi:cy="940.34259"
         sodipodi:cx="4787.6382"
         id="path3947"
         style="fill:#000000;fill-opacity:1;stroke:none"
         sodipodi:type="arc" />
      <path
         sodipodi:type="arc"
         style="fill:#ffffff;fill-opacity:1;stroke:none"
         id="path3949"
         sodipodi:cx="4787.6382"
         sodipodi:cy="940.34259"
         sodipodi:rx="18.798145"
         sodipodi:ry="29.216394"
         d="m 4806.4363,940.34259 c 0,16.13577 -8.4162,29.21639 -18.7981,29.21639 -10.3819,0 -18.7982,-13.08062 -18.7982,-29.21639 0,-16.13577 8.4163,-29.21639 18.7982,-29.21639 10.3819,0 18.7981,13.08062 18.7981,29.21639 z"
         transform="matrix(0.6022223,0.2230619,-0.21398475,0.65538248,-1133.647,-381.38065)" />
      <path
         style="fill:#000000;stroke:none"
         d="m 2210.0079,1175.0481 c 33.9372,0.7051 58.4851,33.4505 61.5457,65.245 8.1522,40.6008 0.2624,85.0163 -25.5453,117.7664 -0.8682,2.4596 -3.8652,10.1003 1.4301,7.496 24.7871,-4.3482 47.9423,9.58 64.9977,26.236 20.2012,18.1473 42.2448,35.9525 54.9374,60.4119 9.0022,18.7595 9.8813,40.3848 7.2,60.708 3.3492,24.2151 23.1225,46.8128 14.055,72.0012 -6.1928,25.0739 -28.858,40.0986 -48.2799,54.642 -8.6312,12.1843 -7.1817,30.8918 -21.6001,39.0089 -11.3236,8.4046 -26.0962,11.6418 -34.7402,23.7113 -15.6395,16.9336 -34.1395,36.2763 -58.7618,36.7499 -34.2566,3.2547 -70.165,-8.2447 -95.2409,-31.8049 -3.777,-3.1513 -6.7274,-10.6996 -11.5763,-10.7547 -17.9227,7.4856 -35.6152,-7.5847 -46.0112,-20.8113 -28.1449,-35.4777 -31.3942,-86.7911 -15.3371,-128.2213 6.8307,-16.1229 18.3691,-30.8325 34.3235,-38.7129 4.6642,-60.6835 22.61,-119.6909 47.7865,-174.7755 10.4854,-28.189 11.6191,-58.5695 9.841,-88.3198 1.6889,-26.5355 11.9697,-57.8758 39.1787,-67.8145 7.0026,-2.3186 14.4244,-3.0259 21.7972,-2.7617 z"
         id="path3929"
         inkscape:connector-curvature="0" />
      <path
         style="fill:#ffffff;stroke:none"
         d="m 2207.2905,1190.7773 c 26.2697,-0.088 45.4303,21.0742 49.8085,59.2283 5.0038,43.6047 -3.5796,67.1747 -15.7317,85.7604 -21.4445,-15.0115 -30.063,-15.681 -45.0741,-11.3921 12.8668,0.7149 28.607,2.1022 40.0441,19.9731 -3.574,5.0038 -5.7206,10.7508 -5.7206,10.7508 0,0 -17.1433,-12.8679 -35.0141,-2.8603 21.4447,3.5741 32.8935,10.7015 32.8935,10.7015 0,0 8.5495,13.5887 -8.6063,20.0222 -17.1558,6.4335 -70.3839,43.5888 -65.3801,94.3419 -15.6068,8.331 -15.7255,17.7835 -17.4283,37.8564 -2.7277,32.1537 -5.0942,48.6677 2.7456,51.5035 -11.4372,17.1561 -24.3066,40.7708 -7.1508,72.9381 -8.5777,15.0115 -11.4405,26.4608 -10.011,34.3239 -17.8704,-24.3041 -29.2625,-77.9505 -11.3917,-97.2509 l 17.852,-19.2825 c 0,0 -15.7334,4.9834 -21.4521,12.1316 -6.4334,-42.1751 3.5617,-133.6699 35.0139,-202.2937 31.4523,-68.6239 21.4523,-108.643 21.4523,-108.643 0,0 -0.7039,-59.3294 31.463,-66.4778 4.021,-0.8935 7.935,-1.319 11.6879,-1.3314 z m 50.8441,189.7675 c 21.3004,0.1635 37.9889,17.5768 68.3019,45.3213 42.1747,38.6008 32.8683,64.3376 32.1536,79.3492 -0.7149,15.0116 7.1508,35.7541 7.1508,35.7541 26.4484,44.3196 -10.7577,68.5784 -30.7728,82.1602 -20.0149,13.5817 -11.0657,35.7827 -30.7236,46.505 -17.5132,11.4374 -17.1459,4.2511 -42.1647,32.8442 -25.0188,28.5933 -60.0311,26.4763 -101.4909,7.8906 -41.46,-18.5856 -25.0508,-57.1855 -20.7619,-67.9079 12.8668,7.1483 31.4921,12.1317 43.6442,12.1317 12.1518,0 18.5727,4.3213 35.0138,22.1921 -12.867,-42.1751 -50.7534,-24.3426 -73.6278,-39.3541 -22.8743,-15.0114 -11.4363,-44.318 2.8603,-66.4778 14.2964,6.4337 32.8521,4.3139 55.7264,0.7397 22.8744,-3.574 38.9749,9.6329 48.6249,20.7127 -5.0036,-12.1521 -19.2874,-24.3143 -33.5838,-28.6033 -14.2966,-4.2888 -42.9112,9.2935 -62.9265,1.4303 -20.0149,-7.8631 -11.4411,-25.7275 -11.4411,-52.1762 10e-5,-26.4488 15.0412,-30.0333 15.0412,-30.0333 0,0 44.3176,-15.7084 69.694,-18.5678 27.0485,-3.0479 43.9601,17.8827 63.2603,33.609 -42.1746,-57.9014 -67.1893,-42.9223 -130.094,-22.1921 -5.7185,-43.6047 29.3068,-67.1752 67.9073,-87.1905 10.8564,-5.6293 19.8735,-8.2011 28.2084,-8.1371 z m -162.5933,145.4081 c 0,0 -2.168,37.8552 2.1211,53.5815 -7.1484,27.8784 -2.8529,74.3519 18.5918,97.9414 -6.4334,11.4373 -17.8581,4.2836 -35.0139,-15.7317 -17.1557,-20.0153 -27.1897,-82.1972 -5.0302,-117.224 10.1862,-13.582 15.9356,-16.6014 19.3312,-18.5672 z"
         id="path3931"
         inkscape:connector-curvature="0"
         sodipodi:nodetypes="ssccccccscsccccccscssssccscsscscsccccsscsccsscccscc" />
      <path
         style="fill:#000000;stroke:none"
         d="m 2251.8222,1397.5587 c 3.5382,0.5055 5.0177,3.5388 -0.5424,14.1536 -5.5599,10.6147 -4.0439,23.2771 -4.0439,23.2771 -9.6036,-10.6147 1.048,-37.9361 4.5863,-37.4307 z m -19.8246,2.4658 c 2.4053,0.2443 4.0598,4.1058 1.6273,9.6659 -3.5381,8.0874 -0.5426,20.7127 -0.5426,20.7127 -4.0435,-3.0326 -8.0752,-23.2526 -4.537,-28.3073 1.1058,-1.5795 2.3588,-2.1824 3.4523,-2.0713 z m -9.8139,87.9796 c 0.8421,0.1247 1.5382,0.6028 2.0713,1.2328 1.6614,1.9636 1.8582,5.741 -4.2904,10.455 -15.1637,11.6257 -5.5727,41.4253 -5.5727,41.4253 -11.12,-19.7129 -8.5929,-37.4188 0,-48.0335 3.3192,-4.1002 5.9393,-5.3555 7.7918,-5.0796 z m -21.4029,9.7151 c 1.4686,-0.054 2.5659,1.7517 0.9863,6.0167 -2.5273,6.8238 -0.2466,22.9811 -0.2466,22.9811 -6.3181,-8.5928 -5.0731,-23.7397 -3.3041,-27.0251 0.6635,-1.2321 1.6834,-1.94 2.5644,-1.9727 z m -6.7563,94.4401 c 2.2181,-0.052 3.1739,3.8984 1.1836,7.5946 -3.5382,6.5709 -7.3542,9.8703 -7.1014,29.8362 0,0 -6.2996,-12.3915 -0.7397,-28.0608 2.4325,-6.8553 4.9325,-9.3295 6.6575,-9.37 z m -11.6384,3.6493 c 1.9015,-0.2533 3.1073,1.949 0.6906,6.2138 -4.2964,7.5821 -3.0577,19.9729 -3.0577,19.9729 0,0 -4.2964,-13.3772 -2.0219,-20.9592 0.9952,-3.317 2.9102,-5.0305 4.389,-5.2275 z m -6.9534,76.4397 c 0.096,-0.016 0.1932,0.017 0.2959,0.049 3.2854,1.0111 2.0465,4.5129 1.0357,11.5893 -1.0109,7.0766 2.0219,14.9428 2.0219,14.9428 -6.3657,-6.8555 -6.349,-26.293 -3.3535,-26.5813 z"
         id="path3963"
         inkscape:connector-curvature="0" />
      <path
         sodipodi:nodetypes="cscsc"
         inkscape:connector-curvature="0"
         id="path4102"
         d="m 1263.4465,1507.4168 c 0,0 56.2412,266.1197 222.2213,260.6327 165.9802,-5.4871 211.2475,-267.4914 204.3887,-362.1423 -40.3669,57.5449 -72.1019,140.0201 -203.6729,150.9848 -93.0189,7.7519 -172.966,1.9911 -222.9371,-49.4752 z"
         style="fill:#000000;stroke:#000000;stroke-width:1px;stroke-linecap:butt;stroke-linejoin:miter;stroke-opacity:1" />
      <path
         id="path4104"
         d="m 1602.5777,1527.9781 c -12.1352,8.714 -25.3109,16.011 -39.6988,21.3044 -55.4397,21.5982 -116.4792,20.8159 -175.1683,18.4442 -13.6359,-1.1483 -27.3689,-3.1288 -40.8332,-6.1644 3.2567,25.372 12.4636,66.5005 38.6633,83.0479 39.0944,24.6916 206.4394,-13.7431 214.6698,-33.6336 4.9399,-11.9379 3.9484,-52.4435 2.3672,-82.9985 z"
         style="fill:#ffffff;stroke:none"
         inkscape:connector-curvature="0" />
      <path
         id="path4106"
         d="m 1556.4679,1677.2572 c -18.2742,-0.1436 -39.6522,4.6999 -63.2716,18.4443 13.7172,7.2015 21.2913,12.9957 26.7782,24.3127 0,0 -75.1924,-47.571 -153.0256,-17.4085 6.4203,7.1017 13.2069,13.8773 20.4164,20.3182 35.5961,30.5113 86.4848,44.6303 131.8695,30.477 35.0338,-10.3902 63.3079,-34.1532 84.8717,-63.0749 -11.4631,-6.8266 -27.7089,-12.9124 -47.6386,-13.0688 z"
         style="fill:#ff0000;stroke:none"
         inkscape:connector-curvature="0" />
      <path
         inkscape:connector-curvature="0"
         id="path4120"
         d="m 1245.6241,1109.7567 17.4593,49.4686 c 0,0 -57.2278,-12.6097 -71.7774,55.2886 -28.1288,-29.0992 -36.8585,-39.769 -36.8585,-39.769 0,0 20.3692,-83.4179 91.1766,-64.9882 z"
         style="fill:#000000;stroke:none" />
      <path
         style="fill:#000000;stroke:none"
         d="m 1564.2553,1045.3858 -5.0995,52.2109 c 0,0 52.5404,-25.9529 82.9327,36.4821 20.3383,-34.9908 26.2576,-47.4413 26.2576,-47.4413 0,0 -39.7607,-76.1084 -104.0908,-41.2517 z"
         id="path4122"
         inkscape:connector-curvature="0" />
      <path
         sodipodi:nodetypes="sccccccsccscccsccssccccccccccccsccsscccsccc"
         inkscape:connector-curvature="0"
         id="path4153"
         d="m 770.62708,1639.5306 c -4.90171,0.1484 -8.8647,1.2737 -11.44109,3.6988 11.6393,1.455 20.24243,1.2156 31.70964,13.7096 0,0 -31.19597,-18.1596 -50.40026,2.4166 -5.14411,8.2305 -8.5924,13.7 -10.30684,27.0745 -1.71475,13.3746 4.10099,30.8464 -31.90714,71.6559 0.34292,7.8876 16.82105,33.3063 39.79761,36.05 22.9764,2.7433 58.29829,-13.0336 66.8716,-44.9268 8.5733,-31.8931 1.03554,-50.4503 1.03554,-50.4503 0,0 7.18474,3.7791 12.32885,23.3265 10.28806,7.2017 15.06495,4.5975 25.24948,57.9461 10.1847,53.3486 28.15902,174.0853 28.15902,174.0853 0,0 53.82258,-37.3406 22.78387,-119.7884 14.06427,25.2193 31.97626,60.1607 -4.88231,109.6292 25.70398,-2.4248 69.39426,-21.3398 75.69922,-79.0533 6.30479,-57.7135 -14.06633,-155.2313 -67.41423,-142.6216 6.78974,35.889 6.78201,69.3777 -3.40268,86.352 3.87974,-54.3185 -9.23674,-123.2147 -27.66602,-133.3994 -15.54989,-8.5934 -69.74554,-36.5091 -96.21426,-35.7047 z m -49.26608,48.8227 c -101.36121,7.7599 -89.73824,61.0918 -82.9485,86.796 32.00877,54.3187 73.23202,32.0151 87.78141,23.7703 -37.34351,-22.7944 -38.31814,-42.6582 -38.31814,-42.6582 0,0 8.72716,-8.743 26.18655,-32.9924 -10.1847,-16.9746 -50.40034,-2.9096 -50.40034,-2.9096 18.42944,-14.0648 46.05143,-11.1375 54.29633,-7.7426 -0.17658,-5.8786 3.42699,-12.6726 3.40269,-24.2635 z m 66.42784,98.4346 c -10.1847,8.7298 -28.60885,19.4226 -52.37303,16.0277 -11.15459,9.6997 -42.6882,21.3054 -67.90722,9.6659 -1.45501,3.3949 -7.25197,28.659 18.93711,46.6035 25.21887,14.0646 95.05397,19.3588 108.1485,-5.3754 13.0947,-24.7343 21.80861,-50.9172 -6.80536,-66.9217 z m -101.8363,78.5603 c 0,0 -11.13281,38.3083 27.66602,58.1927 38.79836,19.8845 78.0819,0.9876 84.87164,-13.5619 6.78974,-14.5497 5.32717,-34.4137 -6.31237,-42.6582 -16.00439,4.8499 -48.02728,20.3368 -106.22529,-1.9726 z m 33.929,70.3243 c -0.97006,2.4252 -19.85856,39.804 -10.15898,60.6587 9.69959,20.8542 53.35926,-3.4029 53.35926,-3.4029 l 2.90945,-54.3461 c 0,0 -18.95076,8.2452 -46.10973,-2.9097 z"
         style="fill:#ffffff;stroke:none" />
      <path
         id="path4185"
         d="m 653.99617,779.41212 c -2.30465,0.0205 -4.7073,0.34324 -7.15082,0.98632 -20.86191,5.48992 -67.80638,4.40623 -86.35118,3.74801 9.70638,11.13971 17.55392,24.12549 23.91805,37.28281 30.73399,63.78242 32.19861,136.56196 38.95901,205.94324 6.49574,76.0994 25.97556,149.782 44.82777,223.5982 2.41937,3.5506 4.84222,7.1296 7.24929,10.7015 13.7182,-4.5101 34.51541,-11.1235 61.24988,-18.9865 15.08893,-159.1233 -31.56186,-303.83536 -31.56186,-303.83536 l -64.4553,-5.52338 63.07447,-24.65795 c -1.6e-4,0 -5.44758,-64.4891 -8.87677,-84.37942 -3.1079,-18.02579 -18.60508,-45.07111 -40.88254,-44.87747 z"
         style="fill:#ffffff;stroke:none"
         inkscape:connector-curvature="0" />
      <path
         inkscape:connector-curvature="0"
         id="path3162"
         d="m 470.19494,798.78885 c 0,0 13.45244,-15.37422 30.10785,-10.89008 16.6554,4.48415 27.54548,25.62371 33.9514,68.54341 6.40593,42.9197 12.81186,145.41452 12.81186,145.41452 0,0 -19.21778,-72.38697 -28.82667,-112.10371 -9.60889,-39.71674 -24.34252,-96.72947 -48.04444,-90.96414 z"
         style="fill:#ff5555;stroke:none" />
    </g>
  </g>
</svg>
